<?xml version="1.0" encoding="UTF-8"?>
<svg version="1.1" xmlns="http://www.w3.org/2000/svg" width="150" height="146">
<path d="M0 0 C1.75443304 -0.02149605 3.50876129 -0.05549869 5.26269531 -0.10253906 C24.40600646 -0.61064055 24.40600646 -0.61064055 32.08764648 6.4050293 C36.42958143 11.17820906 37.4322134 15.9073986 37.29077148 22.26049805 C36.60901273 29.45829725 33.60755708 33.41550799 28.12280273 37.9597168 C23.71328653 41.09123502 20.72272307 41.65237067 15.25537109 41.64453125 C14.57685593 41.64654541 13.89834076 41.64855957 13.19926453 41.65063477 C11.73041631 41.65417233 10.26155283 41.65342297 8.79270744 41.64885902 C6.4684431 41.64325863 4.14467639 41.65243462 1.82044983 41.6660614 C-4.78590182 41.70316921 -11.39208217 41.72170191 -17.99853516 41.71044922 C-22.04288419 41.70460513 -26.0865298 41.72281933 -30.1307354 41.75633812 C-31.67170687 41.76430142 -33.21275481 41.76300243 -34.75370979 41.75231361 C-36.90641244 41.73801876 -39.05689346 41.75421651 -41.20947266 41.77734375 C-42.43428848 41.77797318 -43.65910431 41.7786026 -44.92103577 41.7792511 C-48.08152053 42.10580064 -48.08152053 42.10580064 -49.74534607 44.73722839 C-50.87191207 47.3125794 -51.95623961 49.90220581 -53.01391602 52.5065918 C-54.37310672 55.37862085 -56.18751663 57.92257265 -58.02172852 60.51049805 C-59.18489419 62.9847759 -58.7475956 63.8308548 -57.91235352 66.4050293 C-57.15417218 67.99700294 -56.34679484 69.56598063 -55.50610352 71.1159668 C-55.01335938 72.02491699 -54.52061523 72.93386719 -54.01293945 73.87036133 C-53.48474609 74.83055176 -52.95655273 75.79074219 -52.41235352 76.7800293 C-51.60846191 78.25318604 -51.60846191 78.25318604 -50.78833008 79.75610352 C-46.98929235 86.64567312 -42.92377816 93.25016164 -38.45922852 99.7253418 C-36.91235352 102.4050293 -36.91235352 102.4050293 -36.91235352 106.4050293 C-43.4855083 106.77020456 -48.70720877 105.54122667 -54.91235352 103.4050293 C-54.91235352 102.7450293 -54.91235352 102.0850293 -54.91235352 101.4050293 C-55.90235352 101.1265918 -55.90235352 101.1265918 -56.91235352 100.8425293 C-67.20435866 95.9109435 -71.94271941 86.67988497 -75.91235352 76.4050293 C-79.62513411 64.29771536 -77.87832859 54.21413951 -72.14672852 42.9284668 C-66.88429364 33.91602911 -61.43375653 27.77776862 -51.91235352 23.4050293 C-40.65511089 20.52378713 -28.58032612 21.03264711 -17.05029297 21.03442383 C-13.82476082 21.02999484 -10.6005404 20.99340198 -7.37524414 20.95581055 C-5.31339981 20.94995096 -3.25154906 20.94597583 -1.18969727 20.9440918 C-0.23135483 20.92972076 0.72698761 20.91534973 1.71437073 20.90054321 C7.29280365 20.93887821 9.87818637 21.46231406 14.08764648 25.4050293 C18.43997549 25.40689983 18.43997549 25.40689983 22.08764648 23.4050293 C21.80034593 21.06558194 21.46827869 18.731115 21.08764648 16.4050293 C19.43764648 15.7450293 17.78764648 15.0850293 16.08764648 14.4050293 C15.69177841 14.83135651 15.29591034 15.25768372 14.88804626 15.69692993 C10.76975115 19.72056807 7.9479893 21.08806556 2.19593811 21.08480835 C1.35711594 21.05384064 0.51829376 21.02287292 -0.34594727 20.9909668 C-1.22388443 20.98247711 -2.10182159 20.97398743 -3.00636292 20.96524048 C-5.78881689 20.93186349 -8.56828754 20.8566193 -11.34985352 20.7800293 C-13.24499372 20.74990915 -15.14017971 20.72253694 -17.03540039 20.69799805 C-21.66218708 20.63212436 -26.28676595 20.52871659 -30.91235352 20.4050293 C-31.85310558 17.41183595 -32.06262963 16.73150776 -30.68969727 13.7487793 C-22.29001761 0.76583494 -14.70055867 0.13514303 0 0 Z " fill="#EA5EC4" transform="translate(88.912353515625,9.594970703125)"/>
<path d="M0 0 C0.89267578 0.00644531 1.78535156 0.01289062 2.70507812 0.01953125 C4.09823242 0.04466797 4.09823242 0.04466797 5.51953125 0.0703125 C6.45990234 0.07933594 7.40027344 0.08835938 8.36914062 0.09765625 C10.69036093 0.12122194 13.01106769 0.15412134 15.33203125 0.1953125 C15.82703125 1.6803125 15.82703125 1.6803125 16.33203125 3.1953125 C14.95302799 5.77434201 13.53611468 8.18194342 11.95703125 10.6328125 C11.11116346 11.96185022 10.26985333 13.29380195 9.43359375 14.62890625 C9.05541504 15.21728271 8.67723633 15.80565918 8.28759766 16.41186523 C7.24360111 18.36035649 6.67845935 20.01243115 6.33203125 22.1953125 C9.07052947 29.62680162 13.58585746 36.4229948 17.9140625 43.015625 C19.33203125 45.1953125 19.33203125 45.1953125 20.33203125 47.1953125 C20.66203125 46.2053125 20.99203125 45.2153125 21.33203125 44.1953125 C26.56065456 44.09563204 31.78871169 44.02346503 37.01806641 43.97558594 C38.79290414 43.95560411 40.56767719 43.92840895 42.34228516 43.89355469 C64.14512506 43.47639287 64.14512506 43.47639287 71.24511719 49.93579102 C76.28379021 55.32407043 77.82545366 60.31967818 77.640625 67.63671875 C76.83076465 74.3513837 73.34192424 78.69876821 68.30859375 82.96875 C61.94968273 86.9147936 54.87596035 86.69186501 47.64453125 86.9453125 C46.52369141 87.00074219 45.40285156 87.05617188 44.24804688 87.11328125 C33.690659 87.51768496 24.02985812 87.31797972 15.921875 79.90625 C11.78282646 75.60163952 9.14911466 70.43229927 6.48681641 65.14135742 C4.02204257 60.28475878 1.1683073 55.75691061 -1.77954102 51.1796875 C-5.06743279 45.98367082 -8.12601771 40.66289879 -11.16796875 35.3203125 C-11.8125 34.21945313 -12.45703125 33.11859375 -13.12109375 31.984375 C-14.02601562 30.39109375 -14.02601562 30.39109375 -14.94921875 28.765625 C-15.49642578 27.81445801 -16.04363281 26.86329102 -16.60742188 25.88330078 C-17.84237097 22.75328476 -17.72769951 21.34993707 -16.66796875 18.1953125 C-15.7498482 16.78534165 -14.82508298 15.37844795 -13.84375 14.01171875 C-11.87285679 10.96698339 -10.4333917 7.65491626 -8.9140625 4.3671875 C-6.65941698 0.43746051 -4.22393184 -0.05380805 0 0 Z M21.33203125 48.1953125 C22.33203125 50.1953125 22.33203125 50.1953125 22.33203125 50.1953125 Z M24.33203125 53.1953125 C25.33203125 55.1953125 25.33203125 55.1953125 25.33203125 55.1953125 Z M25.33203125 55.1953125 C26.33203125 57.1953125 26.33203125 57.1953125 26.33203125 57.1953125 Z M26.33203125 57.1953125 C27.33203125 59.1953125 27.33203125 59.1953125 27.33203125 59.1953125 Z M27.33203125 59.1953125 C27.93386874 61.21576692 28.60509221 63.21642289 29.33203125 65.1953125 C29.99203125 65.5253125 30.65203125 65.8553125 31.33203125 66.1953125 C30.73019376 64.17485808 30.05897029 62.17420211 29.33203125 60.1953125 C28.67203125 59.8653125 28.01203125 59.5353125 27.33203125 59.1953125 Z M52.64453125 61.1328125 C49.30604214 64.11038387 46.14931852 63.77004512 41.79296875 63.921875 C39.15531901 63.95556137 39.15531901 63.95556137 37.33203125 66.1953125 C38.2240625 66.20949219 39.11609375 66.22367187 40.03515625 66.23828125 C41.205625 66.28597656 42.37609375 66.33367187 43.58203125 66.3828125 C44.7421875 66.41761719 45.90234375 66.45242187 47.09765625 66.48828125 C51.15994052 67.37629267 51.93300631 68.93430025 54.33203125 72.1953125 C57.97028988 72.44942818 57.97028988 72.44942818 61.33203125 71.1953125 C63.01448055 69.58089277 63.01448055 69.58089277 63.33203125 67.1953125 C62.99596415 62.68101094 62.99596415 62.68101094 60.33203125 59.1953125 C55.9365532 58.54348373 55.9365532 58.54348373 52.64453125 61.1328125 Z " fill="#99F3D7" transform="translate(48.66796875,51.8046875)"/>
<path d="M0 0 C1.75443304 -0.02149605 3.50876129 -0.05549869 5.26269531 -0.10253906 C24.40600646 -0.61064055 24.40600646 -0.61064055 32.08764648 6.4050293 C36.42958143 11.17820906 37.4322134 15.9073986 37.29077148 22.26049805 C36.60901273 29.45829725 33.60755708 33.41550799 28.12280273 37.9597168 C23.69464465 41.10447398 20.69981886 41.65183567 15.20776367 41.63208008 C14.52442963 41.63237213 13.84109558 41.63266418 13.13705444 41.63296509 C10.88607942 41.63157554 8.63543844 41.61603232 6.38452148 41.6003418 C4.82082297 41.59661033 3.2571221 41.59376399 1.69342041 41.59176636 C-2.4165699 41.58414044 -6.52641822 41.56450094 -10.63635254 41.5423584 C-14.83249999 41.52187752 -19.02867045 41.51275985 -23.22485352 41.50268555 C-31.45408524 41.48125402 -39.6832017 41.44713069 -47.91235352 41.4050293 C-47.91235352 41.0750293 -47.91235352 40.7450293 -47.91235352 40.4050293 C-35.37235352 40.0750293 -22.83235352 39.7450293 -9.91235352 39.4050293 C-9.58235352 34.4550293 -9.25235352 29.5050293 -8.91235352 24.4050293 C-9.57235352 24.4050293 -10.23235352 24.4050293 -10.91235352 24.4050293 C-10.91235352 23.7450293 -10.91235352 23.0850293 -10.91235352 22.4050293 C-19.82235352 22.4050293 -28.73235352 22.4050293 -37.91235352 22.4050293 C-37.91235352 22.0750293 -37.91235352 21.7450293 -37.91235352 21.4050293 C-31.31051785 21.30352545 -24.70888376 21.23352035 -18.10644531 21.18530273 C-15.8609261 21.1651999 -13.61545916 21.13791325 -11.37011719 21.10327148 C-8.14057511 21.0546962 -4.91172577 21.03204693 -1.68188477 21.0144043 C-0.17849297 20.98343658 -0.17849297 20.98343658 1.35527039 20.95184326 C7.06206002 20.95001022 9.80375649 21.32358773 14.08764648 25.4050293 C18.43997549 25.40689983 18.43997549 25.40689983 22.08764648 23.4050293 C21.80034593 21.06558194 21.46827869 18.731115 21.08764648 16.4050293 C19.43764648 15.7450293 17.78764648 15.0850293 16.08764648 14.4050293 C15.69177841 14.83135651 15.29591034 15.25768372 14.88804626 15.69692993 C10.76975115 19.72056807 7.9479893 21.08806556 2.19593811 21.08480835 C1.35711594 21.05384064 0.51829376 21.02287292 -0.34594727 20.9909668 C-1.66285301 20.97823227 -1.66285301 20.97823227 -3.00636292 20.96524048 C-5.78881689 20.93186349 -8.56828754 20.8566193 -11.34985352 20.7800293 C-13.24499372 20.74990915 -15.14017971 20.72253694 -17.03540039 20.69799805 C-21.66218708 20.63212436 -26.28676595 20.52871659 -30.91235352 20.4050293 C-31.85310558 17.41183595 -32.06262963 16.73150776 -30.68969727 13.7487793 C-22.29001761 0.76583494 -14.70055867 0.13514303 0 0 Z " fill="#C7F8ED" transform="translate(88.912353515625,9.594970703125)"/>
<path d="M0 0 C0.89267578 0.00644531 1.78535156 0.01289062 2.70507812 0.01953125 C4.09823242 0.04466797 4.09823242 0.04466797 5.51953125 0.0703125 C6.45990234 0.07933594 7.40027344 0.08835938 8.36914062 0.09765625 C10.69036093 0.12122194 13.01106769 0.15412134 15.33203125 0.1953125 C15.82703125 1.6803125 15.82703125 1.6803125 16.33203125 3.1953125 C14.95302799 5.77434201 13.53611468 8.18194342 11.95703125 10.6328125 C11.11116346 11.96185022 10.26985333 13.29380195 9.43359375 14.62890625 C9.05541504 15.21728271 8.67723633 15.80565918 8.28759766 16.41186523 C7.24360111 18.36035649 6.67845935 20.01243115 6.33203125 22.1953125 C7.27541205 24.92777647 7.27541205 24.92777647 8.83203125 27.7578125 C9.38503906 28.81742188 9.93804687 29.87703125 10.5078125 30.96875 C12.23723139 34.02763652 14.08331752 36.95165738 16.01953125 39.8828125 C19.0782282 44.53852821 20.83933783 48.83917729 22.33203125 54.1953125 C21.34203125 53.7003125 21.34203125 53.7003125 20.33203125 53.1953125 C20.30300129 57.44529816 20.28522238 61.69525831 20.26953125 65.9453125 C20.25696289 67.75515625 20.25696289 67.75515625 20.24414062 69.6015625 C20.24091797 70.76171875 20.23769531 71.921875 20.234375 73.1171875 C20.22913818 74.18549805 20.22390137 75.25380859 20.21850586 76.35449219 C20.31700117 78.81920485 20.61637661 80.84776717 21.33203125 83.1953125 C13.58621404 79.66997262 10.14806432 72.41903392 6.48730469 65.1418457 C4.02192811 60.28531199 1.16843665 55.75711145 -1.77954102 51.1796875 C-5.06743279 45.98367082 -8.12601771 40.66289879 -11.16796875 35.3203125 C-11.8125 34.21945313 -12.45703125 33.11859375 -13.12109375 31.984375 C-14.02601562 30.39109375 -14.02601562 30.39109375 -14.94921875 28.765625 C-15.49642578 27.81445801 -16.04363281 26.86329102 -16.60742188 25.88330078 C-17.84237097 22.75328476 -17.72769951 21.34993707 -16.66796875 18.1953125 C-15.7498482 16.78534165 -14.82508298 15.37844795 -13.84375 14.01171875 C-11.87285679 10.96698339 -10.4333917 7.65491626 -8.9140625 4.3671875 C-6.65941698 0.43746051 -4.22393184 -0.05380805 0 0 Z " fill="#EF9BB1" transform="translate(48.66796875,51.8046875)"/>
<path d="M0 0 C1.24457726 -0.00855011 1.24457726 -0.00855011 2.51429749 -0.01727295 C4.26855192 -0.02671423 6.02282401 -0.03325347 7.77709961 -0.03710938 C10.45913574 -0.04682602 13.14040895 -0.0778614 15.82226562 -0.109375 C17.5273392 -0.11590428 19.23241826 -0.12115505 20.9375 -0.125 C21.73864731 -0.1373468 22.53979462 -0.1496936 23.36521912 -0.16241455 C26.7859742 -0.14874117 29.10139335 -0.0568072 32.07250977 1.72363281 C32.79651978 2.45598145 32.79651978 2.45598145 33.53515625 3.203125 C32.54515625 3.533125 31.55515625 3.863125 30.53515625 4.203125 C29.87515625 3.873125 29.21515625 3.543125 28.53515625 3.203125 C28.45361692 4.78559207 28.39572068 6.36928773 28.34765625 7.953125 C28.31285156 8.83484375 28.27804688 9.7165625 28.2421875 10.625 C28.58951359 13.68146957 29.64611798 14.84182716 31.53515625 17.203125 C31.72265625 20.453125 31.72265625 20.453125 31.53515625 23.203125 C31.20515625 23.203125 30.87515625 23.203125 30.53515625 23.203125 C30.19484375 21.5325 30.19484375 21.5325 29.84765625 19.828125 C28.92891967 16.04274127 28.92891967 16.04274127 25.91015625 14.765625 C25.12640625 14.58 24.34265625 14.394375 23.53515625 14.203125 C23.13928818 14.62945221 22.7434201 15.05577942 22.33555603 15.49502563 C18.21726091 19.51866377 15.39549906 20.88616126 9.64344788 20.88290405 C8.8046257 20.85193634 7.96580353 20.82096863 7.1015625 20.7890625 C6.22362534 20.78057281 5.34568817 20.77208313 4.44114685 20.76333618 C1.65869288 20.72995919 -1.12077778 20.65471501 -3.90234375 20.578125 C-5.79748395 20.54800485 -7.69266994 20.52063265 -9.58789062 20.49609375 C-14.21467732 20.43022007 -18.83925618 20.32681229 -23.46484375 20.203125 C-24.40559581 17.20993166 -24.61511987 16.52960347 -23.2421875 13.546875 C-16.77946563 3.55778472 -12.13709451 0.06422186 0 0 Z " fill="#DFF0D6" transform="translate(81.46484375,9.796875)"/>
<path d="M0 0 C0.76837189 0.00141495 1.53674377 0.0028299 2.32839966 0.00428772 C4.76324489 0.00984942 7.19799544 0.02239465 9.6328125 0.03515625 C11.29166533 0.04017621 12.95051962 0.04473824 14.609375 0.04882812 C18.6588902 0.05980627 22.70833534 0.07704419 26.7578125 0.09765625 C26.7578125 0.75765625 26.7578125 1.41765625 26.7578125 2.09765625 C27.4178125 2.09765625 28.0778125 2.09765625 28.7578125 2.09765625 C28.78466345 4.57689426 28.80457797 7.05584465 28.8203125 9.53515625 C28.82869141 10.24220703 28.83707031 10.94925781 28.84570312 11.67773438 C28.85434838 13.48459184 28.81001261 15.29153228 28.7578125 17.09765625 C27.7578125 18.09765625 27.7578125 18.09765625 24.15600586 18.21118164 C22.55321394 18.2110225 20.9504169 18.20532688 19.34765625 18.1953125 C18.50562149 18.19389755 17.66358673 18.1924826 16.79603577 18.19102478 C14.09575915 18.18540888 11.39556422 18.17285373 8.6953125 18.16015625 C6.86914182 18.1551433 5.04296984 18.15058004 3.21679688 18.14648438 C-1.26956292 18.13543429 -5.75586134 18.11815904 -10.2421875 18.09765625 C-10.54326416 19.02288086 -10.84434082 19.94810547 -11.15454102 20.90136719 C-12.27687207 24.19958452 -13.63790307 27.22485623 -15.1796875 30.34765625 C-15.68371094 31.3840625 -16.18773438 32.42046875 -16.70703125 33.48828125 C-18.2421875 36.09765625 -18.2421875 36.09765625 -21.2421875 38.09765625 C-20.9740625 37.43765625 -20.7059375 36.77765625 -20.4296875 36.09765625 C-20.0378125 35.10765625 -19.6459375 34.11765625 -19.2421875 33.09765625 C-18.48421875 31.33421875 -18.48421875 31.33421875 -17.7109375 29.53515625 C-15.92036149 24.75006233 -15.69093798 20.16617399 -15.5546875 15.09765625 C-15.52052734 14.22753906 -15.48636719 13.35742188 -15.45117188 12.4609375 C-15.36960767 10.3402681 -15.30420222 8.21898734 -15.2421875 6.09765625 C-21.6914294 8.10858641 -21.6914294 8.10858641 -26.5546875 12.59765625 C-28.34039277 14.93084136 -30.12157063 17.05788401 -32.2421875 19.09765625 C-30.26346516 12.06219905 -24.85101414 6.75662195 -18.6796875 3.16015625 C-12.76231386 -0.04282581 -6.59459239 -0.04633256 0 0 Z " fill="#EDB484" transform="translate(51.2421875,31.90234375)"/>
<path d="M0 0 C0.08166849 3.00056084 0.14081551 5.9988539 0.1875 9 C0.21263672 9.83917969 0.23777344 10.67835937 0.26367188 11.54296875 C0.36195736 19.99552089 -2.05052727 26.17314106 -7 33 C-8.3308911 30.33821779 -8.11268993 28.31260604 -8.09765625 25.3359375 C-8.09443359 24.21445312 -8.09121094 23.09296875 -8.08789062 21.9375 C-8.07951172 20.761875 -8.07113281 19.58625 -8.0625 18.375 C-8.05798828 17.19164063 -8.05347656 16.00828125 -8.04882812 14.7890625 C-8.03701467 11.85932493 -8.02054258 8.92968728 -8 6 C-10.20995017 7.30302403 -10.20995017 7.30302403 -12 10 C-12.56307569 13.67823474 -12.41594586 17.32696398 -12.3203125 21.0390625 C-12.30990936 22.11626556 -12.29950623 23.19346863 -12.28878784 24.30331421 C-12.253155 27.74442432 -12.19079701 31.18434467 -12.125 34.625 C-12.06982561 38.07267944 -12.02042301 41.52019424 -11.9826355 44.96810913 C-11.95805655 47.11395365 -11.92278622 49.25970653 -11.87600708 51.40518188 C-11.86294525 52.3731369 -11.84988342 53.34109192 -11.83642578 54.33837891 C-11.81991974 55.1923526 -11.8034137 56.04632629 -11.78640747 56.92617798 C-12 59 -12 59 -14 61 C-11.525 64.465 -11.525 64.465 -9 68 C-14.89263164 65.68503757 -17.3828701 60.63043644 -19.79101562 55.1171875 C-20.08685547 54.41851562 -20.38269531 53.71984375 -20.6875 53 C-20.99494141 52.30132812 -21.30238281 51.60265625 -21.61914062 50.8828125 C-26.61361911 39.29824533 -25.53329974 29.70470701 -21 18 C-19.00899779 14.37953306 -16.9530567 11.87102735 -14 9 C-12.24787034 6.91218195 -10.5048723 4.81846857 -8.78125 2.70703125 C-5.99153425 0.03355365 -3.77231053 0 0 0 Z " fill="#EB71B3" transform="translate(36,38)"/>
<path d="M0 0 C4.34185387 1.9661225 6.85617758 4.71235515 9 9 C9 10.98 9 12.96 9 15 C14.61 15.33 20.22 15.66 26 16 C28.25 22.75 28.25 22.75 27.625 26.875 C27.45871094 28.04675781 27.45871094 28.04675781 27.2890625 29.2421875 C27.14597656 30.11230469 27.14597656 30.11230469 27 31 C8.98666243 34.31279771 8.98666243 34.31279771 1 30 C-0.09911549 26.70265354 -0.1139456 24.27041255 -0.09765625 20.80078125 C-0.09443359 19.59228516 -0.09121094 18.38378906 -0.08789062 17.13867188 C-0.07951172 15.87603516 -0.07113281 14.61339844 -0.0625 13.3125 C-0.05573242 11.40114258 -0.05573242 11.40114258 -0.04882812 9.45117188 C-0.03702873 6.30073436 -0.02056597 3.15039051 0 0 Z " fill="#F2C072" transform="translate(68,104)"/>
<path d="M0 0 C3.125 0.1875 3.125 0.1875 6.125 2.1875 C6.48576355 4.25027466 6.48576355 4.25027466 6.46557617 6.82080078 C6.46534958 7.78164581 6.46512299 8.74249084 6.46488953 9.73245239 C6.44940567 10.77207123 6.43392181 11.81169006 6.41796875 12.8828125 C6.41372391 13.94539276 6.40947906 15.00797302 6.40510559 16.10275269 C6.38827389 19.50625646 6.35061303 22.90917433 6.3125 26.3125 C6.29745899 28.61587688 6.28376958 30.91926302 6.27148438 33.22265625 C6.23835574 38.87780505 6.18811197 44.53261068 6.125 50.1875 C3.07131615 48.7501611 1.51797799 47.76712899 -0.234375 44.8515625 C-0.62753906 44.19929688 -1.02070312 43.54703125 -1.42578125 42.875 C-1.82152344 42.194375 -2.21726562 41.51375 -2.625 40.8125 C-3.24181641 39.80316406 -3.24181641 39.80316406 -3.87109375 38.7734375 C-6.04132293 35.11072513 -6.875 33.63126338 -6.875 29.1875 C-7.535 28.8575 -8.195 28.5275 -8.875 28.1875 C-8.215 28.1875 -7.555 28.1875 -6.875 28.1875 C-6.99359375 27.07632813 -7.1121875 25.96515625 -7.234375 24.8203125 C-8.03323236 16.13249453 -8.52996753 8.98186424 -3.875 1.1875 C-2.875 0.1875 -2.875 0.1875 0 0 Z " fill="#EA6FB5" transform="translate(45.875,53.8125)"/>
<path d="M0 0 C6.60166847 -0.15225192 13.20288369 -0.257257 19.8059082 -0.32958984 C22.05152301 -0.35974538 24.29702021 -0.40067698 26.54223633 -0.45263672 C29.77194229 -0.52550334 33.00009025 -0.55946915 36.23046875 -0.5859375 C37.23272995 -0.61690521 38.23499115 -0.64787292 39.2676239 -0.67977905 C46.14797523 -0.68309405 46.14797523 -0.68309405 48.67202759 1.34051514 C49.9855957 2.97412109 49.9855957 2.97412109 52 6 C52.99 6.33 53.98 6.66 55 7 C54.96744792 8.953125 54.93489583 10.90625 54.90234375 12.859375 C54.94469744 15.33999176 54.94469744 15.33999176 56 19 C46.76 19 37.52 19 28 19 C28.33 13.72 28.66 8.44 29 3 C28.34 3 27.68 3 27 3 C27 2.34 27 1.68 27 1 C18.09 1 9.18 1 0 1 C0 0.67 0 0.34 0 0 Z " fill="#A7EEBD" transform="translate(51,31)"/>
<path d="M0 0 C0.82741699 0.01047363 1.65483398 0.02094727 2.50732422 0.03173828 C3.40322266 0.03818359 4.29912109 0.04462891 5.22216797 0.05126953 C6.62789062 0.07640625 6.62789062 0.07640625 8.06201172 0.10205078 C9.00689453 0.11107422 9.95177734 0.12009766 10.92529297 0.12939453 C13.26278464 0.15300556 15.59977295 0.18593562 17.93701172 0.22705078 C17.93701172 0.88705078 17.93701172 1.54705078 17.93701172 2.22705078 C18.59701172 2.22705078 19.25701172 2.22705078 19.93701172 2.22705078 C19.96386267 4.70628879 19.98377719 7.18523918 19.99951172 9.66455078 C20.00789063 10.37160156 20.01626953 11.07865234 20.02490234 11.80712891 C20.03354759 13.61398638 19.98921183 15.42092681 19.93701172 17.22705078 C18.17156003 18.99250247 15.85236492 18.3593625 13.50341797 18.36376953 C12.78025391 18.35990234 12.05708984 18.35603516 11.31201172 18.35205078 C10.61205078 18.35591797 9.91208984 18.35978516 9.19091797 18.36376953 C4.67454477 18.35539036 0.39309033 17.96388268 -4.06298828 17.22705078 C-4.11682676 14.76842677 -4.15657866 12.31097528 -4.18798828 9.85205078 C-4.20474609 9.15337891 -4.22150391 8.45470703 -4.23876953 7.73486328 C-4.25643095 5.89807592 -4.16602089 4.06103116 -4.06298828 2.22705078 C-2.06298828 0.22705078 -2.06298828 0.22705078 0 0 Z " fill="#F4D759" transform="translate(60.06298828125,31.77294921875)"/>
<path d="M0 0 C8.25 0 16.5 0 25 0 C26.39041711 5.56166843 27.00878886 10.88505894 24 16 C20.37370151 17.40344725 16.58490746 17.0980084 12.75 17.0625 C11.48671875 17.05347656 10.2234375 17.04445313 8.921875 17.03515625 C7.95765625 17.02355469 6.9934375 17.01195313 6 17 C5.17026519 15.6773231 4.36216024 14.34107327 3.5625 13 C3.11003906 12.2575 2.65757813 11.515 2.19140625 10.75 C1 8 1 8 0 0 Z " fill="#F2D75E" transform="translate(74,98)"/>
<path d="M0 0 C2.48948807 -0.04610163 4.94460861 -0.08490118 7.4296875 0.07421875 C8.4296875 1.07421875 8.4296875 1.07421875 8.52734375 4.234375 C8.51574219 5.52214844 8.50414063 6.80992188 8.4921875 8.13671875 C8.48316406 9.42707031 8.47414063 10.71742187 8.46484375 12.046875 C8.45324219 13.04589844 8.44164063 14.04492188 8.4296875 15.07421875 C2.79535072 17.48351427 -2.4392236 17.30501706 -8.4453125 17.19921875 C-9.41984375 17.19019531 -10.394375 17.18117188 -11.3984375 17.171875 C-13.78931978 17.14843498 -16.17968511 17.11562317 -18.5703125 17.07421875 C-17.78881842 15.65696817 -17.00600609 14.24044445 -16.22265625 12.82421875 C-15.78687256 12.0353125 -15.35108887 11.24640625 -14.90209961 10.43359375 C-9.87618526 1.52975576 -9.87618526 1.52975576 -5.8828125 0.13671875 C-3.92169455 0.09971652 -1.96064978 0.05661451 0 0 Z " fill="#D6E37F" transform="translate(76.5703125,10.92578125)"/>
<path d="M0 0 C5.11061092 4.70714163 7.0480155 7.9141818 7.375 14.8125 C7.22136952 20.89445944 5.50529581 25.2702588 1.38671875 29.7578125 C-5.72869289 36.2894764 -13.41269542 36.42493619 -22.6875 36.75 C-23.80833984 36.80542969 -24.92917969 36.86085937 -26.08398438 36.91796875 C-33.19004162 37.19016827 -40.13563641 37.06425764 -47 35 C-47.66 34.34 -48.32 33.68 -49 33 C-48.15832275 33.16226074 -47.31664551 33.32452148 -46.44946289 33.49169922 C-42.85031743 34.0220567 -39.44559719 34.12949212 -35.80859375 34.1328125 C-35.14086441 34.13376923 -34.47313507 34.13472595 -33.78517151 34.13571167 C-32.38257757 34.1363882 -30.9799804 34.13457094 -29.57739258 34.13037109 C-27.44019503 34.12500676 -25.3032068 34.13033834 -23.16601562 34.13671875 C-21.79687454 34.13605804 -20.42773358 34.13477703 -19.05859375 34.1328125 C-17.82423584 34.13168457 -16.58987793 34.13055664 -15.31811523 34.12939453 C-11.69350098 34.07542303 -11.69350098 34.07542303 -7 33 C-7 29.04 -7 25.08 -7 21 C-7.66 20.67 -8.32 20.34 -9 20 C-8.79375 18.9275 -8.5875 17.855 -8.375 16.75 C-8.0123809 13.12380904 -8.01637931 11.91708924 -10 9 C-6.47663428 10.17445524 -5.75919879 10.78258629 -4 14 C-3.78673315 16.6729445 -3.71454369 19.0926212 -3.8125 21.75 C-3.83280273 22.79607422 -3.83280273 22.79607422 -3.85351562 23.86328125 C-3.8887055 25.57585541 -3.94250845 27.28802941 -4 29 C-3.01 29 -2.02 29 -1 29 C-1.33 28.67 -1.66 28.34 -2 28 C-2.08748207 26.07332493 -2.10697334 24.14348139 -2.09765625 22.21484375 C-2.09443359 21.04501953 -2.09121094 19.87519531 -2.08789062 18.66992188 C-2.07532227 16.82237305 -2.07532227 16.82237305 -2.0625 14.9375 C-2.05798828 13.70193359 -2.05347656 12.46636719 -2.04882812 11.19335938 C-2.03699608 8.12885883 -2.02051173 5.06445279 -2 2 C-1.34 2 -0.68 2 0 2 C0 1.34 0 0.68 0 0 Z " fill="#91F5E4" transform="translate(119,102)"/>
<path d="M0 0 C1 2 1 2 1.41210938 3.83056641 C2.09858391 6.36379427 3.15484323 8.40371353 4.40625 10.7109375 C4.89899414 11.6198877 5.39173828 12.52883789 5.89941406 13.46533203 C6.42760742 14.42552246 6.95580078 15.38571289 7.5 16.375 C8.03592773 17.35710449 8.57185547 18.33920898 9.12402344 19.35107422 C12.92306116 26.24064382 16.98857535 32.84513234 21.453125 39.3203125 C23 42 23 42 23 46 C16.42684522 46.36517527 11.20514474 45.13619737 5 43 C5 42.34 5 41.68 5 41 C4.01 40.67 3.02 40.34 2 40 C2.99 39.505 2.99 39.505 4 39 C4.99 39.33 5.98 39.66 7 40 C6.94735905 36.85288822 6.85212403 33.70836405 6.75 30.5625 C6.73582031 29.68400391 6.72164062 28.80550781 6.70703125 27.90039062 C6.42744789 20.32368166 4.30228021 14.61786891 0.25 8.25 C-1.21398122 5.6148338 -1.33008069 3.97072619 -1 1 C-0.67 0.67 -0.34 0.34 0 0 Z " fill="#ED85A1" transform="translate(29,70)"/>
<path d="M0 0 C4.03677965 1.34559322 5.16722793 3.96001449 7.25 7.4375 C7.62640625 8.03626953 8.0028125 8.63503906 8.390625 9.25195312 C9.33016605 10.79425121 10.17320769 12.39443615 11 14 C10.67 14.66 10.34 15.32 10 16 C9.67 15.67 9.34 15.34 9 15 C9 24.24 9 33.48 9 43 C0.25699127 35.71415939 0.25699127 35.71415939 -0.34057617 29.40307617 C-0.34010599 28.03294854 -0.32344109 26.66275756 -0.29296875 25.29296875 C-0.28872391 24.56757401 -0.28447906 23.84217926 -0.28010559 23.09480286 C-0.26339543 20.79198109 -0.2257596 18.49005447 -0.1875 16.1875 C-0.17244316 14.6204554 -0.1587565 13.053397 -0.14648438 11.48632812 C-0.11351731 7.65721043 -0.06178992 3.82875666 0 0 Z " fill="#F0A985" transform="translate(60,90)"/>
<path d="M0 0 C2.75164432 -0.13517903 5.49664521 -0.23415251 8.25 -0.3125 C9.02730469 -0.35439453 9.80460937 -0.39628906 10.60546875 -0.43945312 C12.84233024 -0.48724931 14.8117111 -0.47521461 17 0 C19.21875 2.53125 19.21875 2.53125 21 5 C23.60161203 5.3893486 23.60161203 5.3893486 26.25 4.8125 C27.8175 4.544375 29.385 4.27625 31 4 C31 7.63 31 11.26 31 15 C31.66 15.33 32.32 15.66 33 16 C26.52128871 18.36096509 20.40202165 18.23053565 13.5625 18.125 C12.44939453 18.11597656 11.33628906 18.10695312 10.18945312 18.09765625 C7.45940977 18.0742224 4.7298199 18.041414 2 18 C2 17.67 2 17.34 2 17 C5.96 16.67 9.92 16.34 14 16 C14.020625 14.4325 14.04125 12.865 14.0625 11.25 C14.07410156 10.36828125 14.08570312 9.4865625 14.09765625 8.578125 C14.07827821 5.73046524 14.07827821 5.73046524 13 2 C8.71 1.67 4.42 1.34 0 1 C0 0.67 0 0.34 0 0 Z " fill="#B7EAA8" transform="translate(81,119)"/>
<path d="M0 0 C0 13.53 0 27.06 0 41 C-3 40 -3 40 -4.1875 38.1875 C-5 36 -5 36 -5 32 C-5.66 32 -6.32 32 -7 32 C-9.61568482 23.71351049 -8.66115473 13.14978637 -6 5 C-5.34 5 -4.68 5 -4 5 C-4 4.01 -4 3.02 -4 2 C-1 0 -1 0 0 0 Z " fill="#E547D8" transform="translate(21,53)"/>
<path d="M0 0 C4.95 0 9.9 0 15 0 C15.125 13.625 15.125 13.625 14 17 C7.73 17 1.46 17 -5 17 C-5 16.67 -5 16.34 -5 16 C-3.35 15.67 -1.7 15.34 0 15 C0 10.05 0 5.1 0 0 Z " fill="#C2E899" transform="translate(84,11)"/>
<path d="M0 0 C1.32 0 2.64 0 4 0 C4 12.87 4 25.74 4 39 C-0.19761254 36.90119373 -1.06026364 36.07344636 -3 32 C-3 30.68 -3 29.36 -3 28 C-3.66 27.67 -4.32 27.34 -5 27 C-4.34 27 -3.68 27 -3 27 C-3.11859375 25.88882813 -3.2371875 24.77765625 -3.359375 23.6328125 C-4.16495782 14.86014376 -4.53667891 7.92458505 0 0 Z " fill="#EA5FC3" transform="translate(42,55)"/>
<path d="M0 0 C0.89267578 0.00644531 1.78535156 0.01289062 2.70507812 0.01953125 C4.09823242 0.04466797 4.09823242 0.04466797 5.51953125 0.0703125 C6.45990234 0.07933594 7.40027344 0.08835938 8.36914062 0.09765625 C10.69036093 0.12122194 13.01106769 0.15412134 15.33203125 0.1953125 C16.33203125 3.1953125 16.33203125 3.1953125 15.5546875 5.01953125 C14.48046875 6.74479167 13.40625 8.47005208 12.33203125 10.1953125 C12.00203125 10.1953125 11.67203125 10.1953125 11.33203125 10.1953125 C11.14453125 7.8828125 11.14453125 7.8828125 11.33203125 5.1953125 C12.32203125 4.2053125 13.31203125 3.2153125 14.33203125 2.1953125 C4.43203125 2.6903125 4.43203125 2.6903125 -5.66796875 3.1953125 C-8.70732526 9.93888475 -10.07350536 15.62010321 -10.10546875 22.9453125 C-10.11513672 23.65357178 -10.12480469 24.36183105 -10.13476562 25.09155273 C-9.99744726 33.72746422 -5.56919483 40.23106121 -1.19140625 47.42578125 C0.09991016 49.77332827 0.87081486 51.58383049 1.33203125 54.1953125 C-3.49042359 49.78432765 -6.29625892 44.27428971 -9.43334961 38.63256836 C-10.48014075 36.75839975 -11.54894499 34.89798842 -12.61914062 33.03710938 C-13.28914605 31.84192155 -13.95781276 30.64598205 -14.625 29.44921875 C-15.2331958 28.36970947 -15.8413916 27.2902002 -16.46801758 26.17797852 C-17.80032282 22.86632579 -17.83491252 21.5186971 -16.66796875 18.1953125 C-15.7498482 16.78534165 -14.82508298 15.37844795 -13.84375 14.01171875 C-11.87285679 10.96698339 -10.4333917 7.65491626 -8.9140625 4.3671875 C-6.65941698 0.43746051 -4.22393184 -0.05380805 0 0 Z " fill="#E87FDA" transform="translate(48.66796875,51.8046875)"/>
<path d="M0 0 C4.29 0 8.58 0 13 0 C15.25 6.75 15.25 6.75 14.625 10.875 C14.45871094 12.04675781 14.45871094 12.04675781 14.2890625 13.2421875 C14.14597656 14.11230469 14.14597656 14.11230469 14 15 C-2.9921875 18.125 -2.9921875 18.125 -11 15 C-7.40311424 13.75492416 -4.69187598 14.35793461 -1 15 C-0.34 14.67 0.32 14.34 1 14 C1.46954261 10.95418731 1.46954261 10.95418731 1.625 7.4375 C1.69976562 6.23996094 1.77453125 5.04242188 1.8515625 3.80859375 C1.90054688 2.88175781 1.94953125 1.95492187 2 1 C1.34 0.67 0.68 0.34 0 0 Z " fill="#D6E37F" transform="translate(81,120)"/>
<path d="M0 0 C5.30190684 -0.04959331 10.60367737 -0.085811 15.90576172 -0.10986328 C17.70786899 -0.11989476 19.5099601 -0.13352315 21.31201172 -0.15087891 C23.90856935 -0.175253 26.50491097 -0.18651178 29.1015625 -0.1953125 C29.9017984 -0.20563507 30.7020343 -0.21595764 31.52651978 -0.22659302 C36.08590521 -0.22749887 39.70498223 0.26397184 44 2 C40.15290977 3.28236341 36.60987329 3.01501341 32.61328125 2.87890625 C31.38776802 2.84348976 31.38776802 2.84348976 30.13749695 2.80735779 C27.52898407 2.73080782 24.92077456 2.64674628 22.3125 2.5625 C20.54363462 2.50927063 18.77475445 2.45653028 17.00585938 2.40429688 C12.67038094 2.27520441 8.33515957 2.13937489 4 2 C4.46029472 3.60547787 4.9262263 5.20934035 5.39453125 6.8125 C5.65339111 7.70582031 5.91225098 8.59914063 6.17895508 9.51953125 C7.09623271 12.29072979 8.40228975 14.5653939 10 17 C10 17.66 10 18.32 10 19 C16.27 19 22.54 19 29 19 C29 19.33 29 19.66 29 20 C25.37 20.33 21.74 20.66 18 21 C19.7325 21.04125 21.465 21.0825 23.25 21.125 C28.49580155 21.56383797 28.49580155 21.56383797 30.62109375 23.40234375 C31.6875 25.0625 31.6875 25.0625 33 28 C32.01 28.495 32.01 28.495 31 29 C30.72542969 28.19175781 30.45085937 27.38351563 30.16796875 26.55078125 C28.29853961 23.83555538 28.29853961 23.83555538 25.78369141 23.49365234 C22.9523454 23.28087428 20.15175804 23.20436688 17.3125 23.1875 C15.83040039 23.14979492 15.83040039 23.14979492 14.31835938 23.11132812 C11.87850664 23.05239448 9.44045005 23.01616192 7 23 C7.19078125 22.40574219 7.3815625 21.81148437 7.578125 21.19921875 C8.23348123 17.78287101 6.78347629 15.86630118 5 13 C4.01 12.67 3.02 12.34 2 12 C-1.3277439 7.32317073 -1.3277439 7.32317073 -2 5 C-1.38092941 3.31507453 -0.717398 1.64546721 0 0 Z M0 4 C1 6 1 6 1 6 Z M3 9 C4 11 4 11 4 11 Z " fill="#EAE7CA" transform="translate(70,96)"/>
<path d="M0 0 C2.09255888 3.13883832 2.25155871 3.8648127 2.25878906 7.43969727 C2.26509338 8.33394913 2.27139771 9.22820099 2.27789307 10.14955139 C2.2738446 11.11211349 2.26979614 12.0746756 2.265625 13.06640625 C2.26753845 14.05624008 2.2694519 15.04607391 2.27142334 16.06590271 C2.27278438 18.15811416 2.26909362 20.25033407 2.26074219 22.3425293 C2.25003031 25.55341446 2.26064618 28.76374153 2.2734375 31.97460938 C2.27211611 34.00520957 2.26955415 36.03580942 2.265625 38.06640625 C2.26967346 39.03099258 2.27372192 39.99557892 2.27789307 40.98939514 C2.27158875 41.88049484 2.26528442 42.77159454 2.25878906 43.68969727 C2.25640228 44.86859276 2.25640228 44.86859276 2.25396729 46.07130432 C2 48 2 48 0 50 C1.65 52.31 3.3 54.62 5 57 C-0.89263164 54.68503757 -3.3828701 49.63043644 -5.79101562 44.1171875 C-6.08685547 43.41851562 -6.38269531 42.71984375 -6.6875 42 C-6.99494141 41.30132812 -7.30238281 40.60265625 -7.61914062 39.8828125 C-12.19595338 29.26701049 -11.57340534 20.90452487 -8.265625 9.91796875 C-6.92125515 6.81844937 -5.52130681 5.20614346 -3 3 C-2.13375 2.13375 -2.13375 2.13375 -1.25 1.25 C-0.8375 0.8375 -0.425 0.425 0 0 Z M-5 6 C-5 6.99 -5 7.98 -5 9 C-5.66 9 -6.32 9 -7 9 C-9.66115473 17.14978637 -10.61568482 27.71351049 -8 36 C-7.34 36 -6.68 36 -6 36 C-5.896875 36.928125 -5.79375 37.85625 -5.6875 38.8125 C-4.99445363 42.02571499 -4.56721909 43.07458568 -2 45 C-1.67 45 -1.34 45 -1 45 C-1 31.47 -1 17.94 -1 4 C-2.46225016 3.90754997 -2.46225016 3.90754997 -5 6 Z " fill="#E95AD1" transform="translate(22,49)"/>
<path d="M0 0 C1.41655793 -0.0272415 2.83327045 -0.04650467 4.25 -0.0625 C5.43335937 -0.07990234 5.43335937 -0.07990234 6.640625 -0.09765625 C9 0 9 0 13 1 C13 6.28 13 11.56 13 17 C10.11788698 17.96070434 8.30149956 18.10581883 5.3125 18.0625 C3.1778125 18.0315625 3.1778125 18.0315625 1 18 C1.33 12.72 1.66 7.44 2 2 C1.34 2 0.68 2 0 2 C0 1.34 0 0.68 0 0 Z " fill="#CBE58F" transform="translate(78,32)"/>
<path d="M0 0 C5.47422958 5.47422958 8.08817326 11.19516458 8.1953125 18.9609375 C8.18213884 20.76572911 8.15846488 22.57047059 8.125 24.375 C8.11597656 25.30183594 8.10695313 26.22867188 8.09765625 27.18359375 C8.07422937 29.45600077 8.04142748 31.7278618 8 34 C4.62109375 33.66015625 4.62109375 33.66015625 1 33 C-0.9375 30.4375 -0.9375 30.4375 -2 28 C-1.34 28 -0.68 28 0 28 C0 18.76 0 9.52 0 0 Z " fill="#EB74B5" transform="translate(28,76)"/>
<path d="M0 0 C3.63 0 7.26 0 11 0 C12.39041711 5.56166843 13.00878886 10.88505894 10 16 C6.53610094 17.66780325 2.85649502 17 -1 17 C-0.67 11.39 -0.34 5.78 0 0 Z " fill="#D6E37F" transform="translate(88,98)"/>
<path d="M0 0 C2.33944736 0.28730055 4.6739143 0.61936779 7 1 C7.33 1.99 7.66 2.98 8 4 C7.34 4 6.68 4 6 4 C6.00523682 4.80743652 6.01047363 5.61487305 6.01586914 6.44677734 C6.03659929 10.08951038 6.04964749 13.73223102 6.0625 17.375 C6.07087891 18.64601563 6.07925781 19.91703125 6.08789062 21.2265625 C6.09111328 22.43828125 6.09433594 23.65 6.09765625 24.8984375 C6.10289307 26.01911621 6.10812988 27.13979492 6.11352539 28.29443359 C6 31 6 31 5 33 C5.66 33.33 6.32 33.66 7 34 C4.69 34.66 2.38 35.32 0 36 C-1.56033623 34.43966377 -1.20707559 32.91052864 -1.25 30.75 C-1.22367726 26.5844257 -0.2744869 24.50650063 2 21 C2.50010524 17.95769177 2.50010524 17.95769177 2 15 C1.50242187 14.38640625 1.00484375 13.7728125 0.4921875 13.140625 C-1.35158457 10.4956326 -1.34416777 9.00007904 -1.25 5.8125 C-1.23453125 4.93207031 -1.2190625 4.05164063 -1.203125 3.14453125 C-1 1 -1 1 0 0 Z " fill="#96F3D6" transform="translate(110,12)"/>
<path d="M0 0 C4.62 0 9.24 0 14 0 C13.67 0.99 13.34 1.98 13 3 C12.34 3 11.68 3 11 3 C11.12375 4.546875 11.12375 4.546875 11.25 6.125 C10.96047708 10.61260533 9.84044077 12.5747626 7 16 C6.34 16 5.68 16 5 16 C4.67 27.22 4.34 38.44 4 50 C3.67 50 3.34 50 3 50 C2.99191315 49.40309357 2.98382629 48.80618713 2.97549438 48.19119263 C2.88962803 41.9945903 2.79013307 35.79831452 2.68261719 29.60205078 C2.64426599 27.28765331 2.6094241 24.97319498 2.578125 22.65869141 C2.5326076 19.33734336 2.47459157 16.01641659 2.4140625 12.6953125 C2.40251129 11.65569366 2.39096008 10.61607483 2.37905884 9.54495239 C2.35918915 8.58410736 2.33931946 7.62326233 2.31884766 6.63330078 C2.30552399 5.78502716 2.29220032 4.93675354 2.2784729 4.06277466 C2.18223842 1.77813881 2.18223842 1.77813881 0 0 Z M1 50 C1.99 50.495 1.99 50.495 3 51 C2.01 51.495 2.01 51.495 1 52 C1 51.34 1 50.68 1 50 Z " fill="#EA82A5" transform="translate(49,54)"/>
<path d="M0 0 C2.75347128 2.514039 3.82748627 4.40778307 4.23828125 8.19921875 C4.45086344 15.32631645 3.28189957 20.42408037 -1.61328125 25.7578125 C-8.72869289 32.2894764 -16.41269542 32.42493619 -25.6875 32.75 C-26.80833984 32.80542969 -27.92917969 32.86085937 -29.08398438 32.91796875 C-36.19004162 33.19016827 -43.13563641 33.06425764 -50 31 C-50.66 30.34 -51.32 29.68 -52 29 C-51.15832275 29.16226074 -50.31664551 29.32452148 -49.44946289 29.49169922 C-45.85031743 30.0220567 -42.44559719 30.12949212 -38.80859375 30.1328125 C-38.14086441 30.13376923 -37.47313507 30.13472595 -36.78517151 30.13571167 C-35.38257757 30.1363882 -33.9799804 30.13457094 -32.57739258 30.13037109 C-30.44019503 30.12500676 -28.3032068 30.13033834 -26.16601562 30.13671875 C-24.79687454 30.13605804 -23.42773358 30.13477703 -22.05859375 30.1328125 C-20.82423584 30.13168457 -19.58987793 30.13055664 -18.31811523 30.12939453 C-14.69350098 30.07542303 -14.69350098 30.07542303 -10 29 C-10 25.04 -10 21.08 -10 17 C-10.66 16.67 -11.32 16.34 -12 16 C-11.79375 14.9275 -11.5875 13.855 -11.375 12.75 C-11.0123809 9.12380904 -11.01637931 7.91708924 -13 5 C-9.47663428 6.17445524 -8.75919879 6.78258629 -7 10 C-6.78673315 12.6729445 -6.71454369 15.0926212 -6.8125 17.75 C-6.83280273 18.79607422 -6.83280273 18.79607422 -6.85351562 19.86328125 C-6.8887055 21.57585541 -6.94250845 23.28802941 -7 25 C-3.55484772 24.40052906 -3.11170462 24.14362023 -0.8125 21.1875 C2.17912786 15.92636136 2.90266847 11.0345356 1.55078125 4.9921875 C1.07252679 3.31660095 0.54087612 1.65643311 0 0 Z " fill="#DBF7EA" transform="translate(122,106)"/>
<path d="M0 0 C0.99 0.33 1.98 0.66 3 1 C3 2.32 3 3.64 3 5 C4.32 5 5.64 5 7 5 C7 5.66 7 6.32 7 7 C7.66 7 8.32 7 9 7 C9.08078641 9.12438339 9.13909141 11.2496323 9.1875 13.375 C9.22230469 14.55835938 9.25710937 15.74171875 9.29296875 16.9609375 C9.19628906 17.96382812 9.09960938 18.96671875 9 20 C6 22 6 22 0 21 C0 14.07 0 7.14 0 0 Z " fill="#F4D75A" transform="translate(74,114)"/>
<path d="M0 0 C3.63 0 7.26 0 11 0 C11 4.29 11 8.58 11 13 C9.906875 13.103125 8.81375 13.20625 7.6875 13.3125 C4.08001834 13.62543565 4.08001834 13.62543565 2.4375 15.5625 C1 17 1 17 -2.1875 17.1875 C-3.5796875 17.0946875 -3.5796875 17.0946875 -5 17 C-3.68 16.67 -2.36 16.34 -1 16 C-0.31798844 10.62915894 0.11521265 5.41499441 0 0 Z " fill="#B9EAA8" transform="translate(99,98)"/>
<path d="M0 0 C1 2 1 2 1.41748047 3.85888672 C2.07308848 6.26864457 3.06324653 8.10194677 4.3203125 10.2578125 C4.99900391 11.44310547 4.99900391 11.44310547 5.69140625 12.65234375 C6.65249192 14.31002012 7.6160629 15.96625788 8.58203125 17.62109375 C9.03191406 18.40871094 9.48179688 19.19632813 9.9453125 20.0078125 C10.36312988 20.72598145 10.78094727 21.44415039 11.21142578 22.18408203 C11.47165527 22.78333496 11.73188477 23.38258789 12 24 C11.67 24.66 11.34 25.32 11 26 C10.34 25.67 9.68 25.34 9 25 C9 30.61 9 36.22 9 42 C10.32 42 11.64 42 13 42 C13 42.66 13 43.32 13 44 C15.64 44 18.28 44 21 44 C20.319375 42.88625 19.63875 41.7725 18.9375 40.625 C17.77734375 38.7265625 17.77734375 38.7265625 17 37 C17.33 36.34 17.66 35.68 18 35 C18.84495189 36.07429598 19.67554858 37.15989202 20.5 38.25 C20.9640625 38.85328125 21.428125 39.4565625 21.90625 40.078125 C23 42 23 42 23 46 C16.42684522 46.36517527 11.20514474 45.13619737 5 43 C5 42.34 5 41.68 5 41 C4.01 40.67 3.02 40.34 2 40 C2.99 39.505 2.99 39.505 4 39 C4.99 39.33 5.98 39.66 7 40 C6.94735905 36.85288822 6.85212403 33.70836405 6.75 30.5625 C6.73582031 29.68400391 6.72164062 28.80550781 6.70703125 27.90039062 C6.42744789 20.32368166 4.30228021 14.61786891 0.25 8.25 C-1.21398122 5.6148338 -1.33008069 3.97072619 -1 1 C-0.67 0.67 -0.34 0.34 0 0 Z " fill="#F2C1D2" transform="translate(29,70)"/>
<path d="M0 0 C2.96582624 2.96582624 5.07061907 6.02489774 7.25 9.5625 C7.62640625 10.15224609 8.0028125 10.74199219 8.390625 11.34960938 C9.3260331 12.86105004 10.17093646 14.42771031 11 16 C10.67 16.66 10.34 17.32 10 18 C6 12.25 6 12.25 6 10 C5.34 10 4.68 10 4 10 C3.85057663 14.41067124 3.74228989 18.81996481 3.67041016 23.23242188 C3.64041831 24.73007906 3.59960874 26.22756329 3.54736328 27.72460938 C2.95404387 37.79137426 2.95404387 37.79137426 6.8359375 46.78125 C7.8709426 47.87316591 8.92550406 48.94692148 10 50 C11.01789563 51.31972204 12.02265774 52.64997042 13 54 C6.23158366 51.00964364 2.12567677 44.49179022 -1 38 C-1.25 35.0625 -1.25 35.0625 -1 33 C-0.67 33 -0.34 33 0 33 C0 22.11 0 11.22 0 0 Z " fill="#F1BBB7" transform="translate(57,81)"/>
<path d="M0 0 C-0.14033111 1.97956441 -0.2874123 3.95865141 -0.4375 5.9375 C-0.51871094 7.03964844 -0.59992188 8.14179688 -0.68359375 9.27734375 C-1 12 -1 12 -2 13 C-3.85287502 13.07226502 -5.70833878 13.0838122 -7.5625 13.0625 C-8.57441406 13.05347656 -9.58632812 13.04445313 -10.62890625 13.03515625 C-11.41136719 13.02355469 -12.19382813 13.01195312 -13 13 C-14 11 -14 11 -13.43359375 9.1953125 C-10.65539949 3.42102638 -7.13538071 -2.32207433 0 0 Z " fill="#F3DA59" transform="translate(75,14)"/>
<path d="M0 0 C6.6 0 13.2 0 20 0 C20 0.66 20 1.32 20 2 C20.66 2 21.32 2 22 2 C22.02685095 4.47923801 22.04676547 6.9581884 22.0625 9.4375 C22.07087891 10.14455078 22.07925781 10.85160156 22.08789062 11.58007812 C22.09653588 13.38693559 22.05220011 15.19387603 22 17 C21 18 21 18 17.40234375 18.09765625 C15.91403133 18.0909822 14.42573568 18.07902183 12.9375 18.0625 C12.17888672 18.05798828 11.42027344 18.05347656 10.63867188 18.04882812 C8.75908129 18.0370068 6.87953101 18.01907078 5 18 C5 17.67 5 17.34 5 17 C8.63 16.67 12.26 16.34 16 16 C16 11.38 16 6.76 16 2 C10.72 1.67 5.44 1.34 0 1 C0 0.67 0 0.34 0 0 Z " fill="#E0DC76" transform="translate(58,32)"/>
<path d="M0 0 C-0.66 0.66 -1.32 1.32 -2 2 C-2.3063859 4.73434962 -2.5113336 7.38279821 -2.625 10.125 C-2.66367187 10.87910156 -2.70234375 11.63320313 -2.7421875 12.41015625 C-2.83651031 14.27303184 -2.91934662 16.13648255 -3 18 C-2.34 18 -1.68 18 -1 18 C-2.85913191 24.89835786 -5.79515783 30.24385683 -10 36 C-10.33 35.34 -10.66 34.68 -11 34 C-10.03603181 32.26485727 -9.06580303 30.53102998 -8.0078125 28.8515625 C-6.19395847 25.519133 -5.86086316 22.20110677 -5.68359375 18.453125 C-5.64169922 17.60878906 -5.59980469 16.76445313 -5.55664062 15.89453125 C-5.51732422 15.02183594 -5.47800781 14.14914063 -5.4375 13.25 C-5.39431641 12.36183594 -5.35113281 11.47367188 -5.30664062 10.55859375 C-5.20086385 8.37254037 -5.09877454 6.18637911 -5 4 C-11.4492419 6.01093016 -11.4492419 6.01093016 -16.3125 10.5 C-18.09820527 12.83318511 -19.87938313 14.96022776 -22 17 C-20.0015053 9.89424108 -14.50890826 4.60830952 -8.3125 0.9375 C-5.0998578 -0.84856929 -3.49468045 -1.2542984 0 0 Z " fill="#F2BDD1" transform="translate(41,34)"/>
<path d="M0 0 C6.6199806 -0.15208965 13.23951124 -0.25718867 19.86083984 -0.32958984 C22.11328975 -0.35976962 24.36562207 -0.400719 26.61767578 -0.45263672 C29.85478701 -0.52539682 33.09034555 -0.55944469 36.328125 -0.5859375 C37.83925873 -0.63238907 37.83925873 -0.63238907 39.38092041 -0.67977905 C46.23124407 -0.68307932 46.23124407 -0.68307932 48.54821777 1.37567139 C49.66699219 3.03662109 49.66699219 3.03662109 51 6 C50.4225 5.690625 49.845 5.38125 49.25 5.0625 C46.78094132 3.80714968 46.78094132 3.80714968 43 3 C43.495 10.92 43.495 10.92 44 19 C41.69 19 39.38 19 37 19 C37.99 18.67 38.98 18.34 40 18 C40 12.72 40 7.44 40 2 C20.2 1.505 20.2 1.505 0 1 C0 0.67 0 0.34 0 0 Z " fill="#D7EEC3" transform="translate(51,31)"/>
<path d="M0 0 C2.31 0 4.62 0 7 0 C6.67 5.28 6.34 10.56 6 16 C3.69 16 1.38 16 -1 16 C-1.02685095 13.52076199 -1.04676547 11.0418116 -1.0625 8.5625 C-1.07506836 7.50192383 -1.07506836 7.50192383 -1.08789062 6.41992188 C-1.09653588 4.61306441 -1.05220011 2.80612397 -1 1 C-0.67 0.67 -0.34 0.34 0 0 Z " fill="#F4BE6D" transform="translate(57,33)"/>
<path d="M0 0 C5 2 5 2 6 4 C6.14911411 6.28832811 6.22139705 8.58199707 6.25 10.875 C6.27578125 12.10992187 6.3015625 13.34484375 6.328125 14.6171875 C5.98550073 18.14948054 5.40930359 19.4765715 3 22 C2.01 21.67 1.02 21.34 0 21 C0 14.07 0 7.14 0 0 Z " fill="#87F6E9" transform="translate(118,19)"/>
<path d="M0 0 C0 3.63 0 7.26 0 11 C0.66 11.33 1.32 11.66 2 12 C-1.21451269 13.60725635 -4.43612536 13.05748185 -8 13 C-8.96120056 9.2619978 -8.80880054 6.7407025 -8 3 C-8.33 2.34 -8.66 1.68 -9 1 C-5.846632 0.29925156 -3.27275026 0 0 0 Z " fill="#AEEDBC" transform="translate(112,123)"/>
<path d="M0 0 C3.84375 1.671875 3.84375 1.671875 5.25 4.625 C5.4975 5.40875 5.745 6.1925 6 7 C5.34 6.67 4.68 6.34 4 6 C4 15.24 4 24.48 4 34 C2.68 33.01 1.36 32.02 0 31 C-0.45410156 27.8137207 -0.45410156 27.8137207 -0.390625 23.92578125 C-0.38496521 23.2419487 -0.37930542 22.55811615 -0.37347412 21.8535614 C-0.35110816 19.67249101 -0.30091765 17.49307247 -0.25 15.3125 C-0.229935 13.83270605 -0.21168422 12.3528863 -0.1953125 10.87304688 C-0.15124474 7.2481624 -0.08221822 3.62424244 0 0 Z " fill="#F1B37A" transform="translate(65,99)"/>
<path d="M0 0 C1.32 0 2.64 0 4 0 C4.33 5.28 4.66 10.56 5 16 C3.68 16 2.36 16 1 16 C1 16.66 1 17.32 1 18 C0.01 18 -0.98 18 -2 18 C-2.05382106 15.37472811 -2.09358313 12.75055287 -2.125 10.125 C-2.14175781 9.37863281 -2.15851562 8.63226563 -2.17578125 7.86328125 C-2.1933959 5.90805539 -2.10320189 3.95257979 -2 2 C-1.34 1.34 -0.68 0.68 0 0 Z " fill="#ED8E99" transform="translate(40,34)"/>
<path d="M0 0 C0.66 0.33 1.32 0.66 2 1 C2 16.84 2 32.68 2 49 C1.01 48.67 0.02 48.34 -1 48 C-0.67 32.16 -0.34 16.32 0 0 Z " fill="#ED79AB" transform="translate(50,55)"/>
<path d="M0 0 C2.31 0.33 4.62 0.66 7 1 C7.13496251 3.10241603 7.23197307 5.2072961 7.3125 7.3125 C7.37050781 8.48425781 7.42851563 9.65601563 7.48828125 10.86328125 C7 14 7 14 4.6953125 15.8984375 C-0.83063064 18.15686644 -5.58913935 17.11155538 -11 15 C-7.40311424 13.75492416 -4.69187598 14.35793461 -1 15 C-0.34 14.67 0.32 14.34 1 14 C1.46954261 10.95418731 1.46954261 10.95418731 1.625 7.4375 C1.69976562 6.23996094 1.77453125 5.04242188 1.8515625 3.80859375 C1.90054688 2.88175781 1.94953125 1.95492187 2 1 C1.34 0.67 0.68 0.34 0 0 Z " fill="#E2DD73" transform="translate(81,120)"/>
<path d="M0 0 C2.31 0 4.62 0 7 0 C7.02691685 2.45840605 7.04679802 4.91651882 7.0625 7.375 C7.07087891 8.07367188 7.07925781 8.77234375 7.08789062 9.4921875 C7.11328125 14.7734375 7.11328125 14.7734375 6 17 C3.69 17 1.38 17 -1 17 C-1.33 16.01 -1.66 15.02 -2 14 C-0.68 14.33 0.64 14.66 2 15 C2 10.38 2 5.76 2 1 C1.34 0.67 0.68 0.34 0 0 Z " fill="#E1E071" transform="translate(81,98)"/>
<path d="M0 0 C2 2 2 2 2.22705078 5.16455078 C2.22673389 6.50817963 2.21542181 7.8518341 2.1953125 9.1953125 C2.1924826 9.90275604 2.18965271 10.61019958 2.18673706 11.33908081 C2.17553137 13.6012251 2.15042679 15.86297515 2.125 18.125 C2.11497067 19.65754637 2.10584474 21.19009894 2.09765625 22.72265625 C2.07559086 26.48192301 2.04105896 30.24089464 2 34 C1.34 33.67 0.68 33.34 0 33 C-0.91992153 28.9896374 -1.12819938 25.11866575 -1.1328125 21.015625 C-1.13410156 19.91605469 -1.13539062 18.81648438 -1.13671875 17.68359375 C-1.13285156 16.55050781 -1.12898438 15.41742188 -1.125 14.25 C-1.12886719 13.10144531 -1.13273437 11.95289062 -1.13671875 10.76953125 C-1.13542969 9.67511719 -1.13414063 8.58070312 -1.1328125 7.453125 C-1.13168457 6.45442383 -1.13055664 5.45572266 -1.12939453 4.42675781 C-1 2 -1 2 0 0 Z " fill="#EF8E99" transform="translate(56,81)"/>
<path d="M0 0 C2.28304899 0.0179485 4.52425196 0.11763285 6.796875 0.33203125 C6.87763165 2.62312722 6.93595231 4.91502392 6.984375 7.20703125 C7.03658203 9.12128906 7.03658203 9.12128906 7.08984375 11.07421875 C6.99316406 12.14929688 6.89648438 13.224375 6.796875 14.33203125 C3.00524473 16.85978476 -0.01186531 16.5564616 -4.390625 16.45703125 C-5.14021484 16.44800781 -5.88980469 16.43898438 -6.66210938 16.4296875 C-8.50925154 16.40615703 -10.35622912 16.37028686 -12.203125 16.33203125 C-10.553125 13.36203125 -8.903125 10.39203125 -7.203125 7.33203125 C-6.873125 7.99203125 -6.543125 8.65203125 -6.203125 9.33203125 C-6.863125 10.98203125 -7.523125 12.63203125 -8.203125 14.33203125 C-4.573125 14.33203125 -0.943125 14.33203125 2.796875 14.33203125 C3.126875 10.37203125 3.456875 6.41203125 3.796875 2.33203125 C0.6047624 3.1300594 -2.18467593 4.07434414 -5.203125 5.33203125 C-4.06475685 2.29638286 -3.36675282 0.50740069 0 0 Z " fill="#E6DE74" transform="translate(70.203125,11.66796875)"/>
<path d="M0 0 C2.61724095 2.36797991 4.32861729 4.89600354 6 8 C6 8.66 6 9.32 6 10 C12.27 10 18.54 10 25 10 C25 10.33 25 10.66 25 11 C21.37 11.33 17.74 11.66 14 12 C15.7325 12.04125 17.465 12.0825 19.25 12.125 C24.49580155 12.56383797 24.49580155 12.56383797 26.62109375 14.40234375 C27.6875 16.0625 27.6875 16.0625 29 19 C28.34 19.33 27.68 19.66 27 20 C26.72542969 19.19175781 26.45085937 18.38351563 26.16796875 17.55078125 C24.29853961 14.83555538 24.29853961 14.83555538 21.78369141 14.49365234 C18.9523454 14.28087428 16.15175804 14.20436688 13.3125 14.1875 C12.32443359 14.16236328 11.33636719 14.13722656 10.31835938 14.11132812 C7.87850664 14.05239448 5.44045005 14.01616192 3 14 C3.18103271 13.3827002 3.36206543 12.76540039 3.54858398 12.12939453 C4.13731906 9.35224616 3.43860395 8.31214033 2.0625 5.875 C0 2.16949153 0 2.16949153 0 0 Z " fill="#F4F4E8" transform="translate(74,105)"/>
<path d="M0 0 C0.70395903 2.19009477 1.10121346 3.59726469 0.53344727 5.85644531 C-0.04279246 8.17195321 -0.11375842 10.16375446 -0.09765625 12.546875 C-0.09443359 13.39121094 -0.09121094 14.23554687 -0.08789062 15.10546875 C-0.07951172 15.97816406 -0.07113281 16.85085937 -0.0625 17.75 C-0.05573242 19.08224609 -0.05573242 19.08224609 -0.04882812 20.44140625 C-0.037074 22.62767329 -0.02064249 24.81380179 0 27 C0.66 27 1.32 27 2 27 C2 28.32 2 29.64 2 31 C2.66 31.33 3.32 31.66 4 32 C4 32.99 4 33.98 4 35 C4.66 35 5.32 35 6 35 C6.38091797 35.90492187 6.38091797 35.90492187 6.76953125 36.828125 C9.29568376 42.75675636 9.29568376 42.75675636 13 48 C7.10736836 45.68503757 4.6171299 40.63043644 2.20898438 35.1171875 C1.91314453 34.41851562 1.61730469 33.71984375 1.3125 33 C1.00505859 32.30132812 0.69761719 31.60265625 0.38085938 30.8828125 C-4.30003076 20.02560561 -3.50323473 11.15613441 0 0 Z " fill="#F5D6EB" transform="translate(14,58)"/>
<path d="M0 0 C4.875 0.875 4.875 0.875 6 2 C6.07271741 4.35313555 6.08370868 6.70833668 6.0625 9.0625 C6.05347656 10.35285156 6.04445313 11.64320312 6.03515625 12.97265625 C6.02355469 13.97167969 6.01195313 14.97070312 6 16 C6.66 16.33 7.32 16.66 8 17 C6.00045254 17.04254356 3.99958364 17.04080783 2 17 C-0.05922402 14.94077598 0.58572421 10.78291876 0.4375 7.9375 C0.39431641 7.17888672 0.35113281 6.42027344 0.30664062 5.63867188 C0.20026367 3.75934562 0.09960066 1.87969756 0 0 Z " fill="#B6EBA8" transform="translate(93,33)"/>
<path d="M0 0 C1.65 0 3.3 0 5 0 C5 4.95 5 9.9 5 15 C5.66 15.33 6.32 15.66 7 16 C5.00045254 16.04254356 2.99958364 16.04080783 1 16 C0 15 0 15 -0.09765625 11.62109375 C-0.09098369 10.22652923 -0.07902532 8.83198257 -0.0625 7.4375 C-0.05798828 6.72658203 -0.05347656 6.01566406 -0.04882812 5.28320312 C-0.03700864 3.52209987 -0.01907263 1.76103964 0 0 Z " fill="#EF9B8D" transform="translate(44,34)"/>
<path d="M0 0 C1.99954746 -0.04254356 4.00041636 -0.04080783 6 0 C7 1 7 1 7.09765625 4.37890625 C7.09098369 5.77347077 7.07902532 7.16801743 7.0625 8.5625 C7.05798828 9.27341797 7.05347656 9.98433594 7.04882812 10.71679688 C7.03700864 12.47790013 7.01907263 14.23896036 7 16 C5.35 16 3.7 16 2 16 C2 11.05 2 6.1 2 1 C1.34 0.67 0.68 0.34 0 0 Z " fill="#D6E37F" transform="translate(78,33)"/>
<path d="M0 0 C1.65 0 3.3 0 5 0 C5.02699725 2.27076842 5.04639453 4.54162821 5.0625 6.8125 C5.07410156 8.07707031 5.08570312 9.34164063 5.09765625 10.64453125 C5 14 5 14 4 17 C2.68 16.67 1.36 16.34 0 16 C0 10.72 0 5.44 0 0 Z " fill="#B7EBA7" transform="translate(94,11)"/>
<path d="M0 0 C1.65 0 3.3 0 5 0 C5.33 1.32 5.66 2.64 6 4 C5.34 4 4.68 4 4 4 C3.67 10.27 3.34 16.54 3 23 C2.01 23 1.02 23 0 23 C0 15.41 0 7.82 0 0 Z " fill="#F3CB6D" transform="translate(71,111)"/>
<path d="M0 0 C2.47923801 -0.02685095 4.9581884 -0.04676547 7.4375 -0.0625 C8.14455078 -0.07087891 8.85160156 -0.07925781 9.58007812 -0.08789062 C11.38693559 -0.09653588 13.19387603 -0.05220011 15 0 C16 1 16 1 16.09765625 4.37890625 C16.09098369 5.77347077 16.07902532 7.16801743 16.0625 8.5625 C16.05798828 9.27341797 16.05347656 9.98433594 16.04882812 10.71679688 C16.03700864 12.47790013 16.01907263 14.23896036 16 16 C19.3 16.33 22.6 16.66 26 17 C26 17.33 26 17.66 26 18 C18.08 18 10.16 18 2 18 C2 17.67 2 17.34 2 17 C5.96 16.67 9.92 16.34 14 16 C14.020625 14.4325 14.04125 12.865 14.0625 11.25 C14.07410156 10.36828125 14.08570312 9.4865625 14.09765625 8.578125 C14.07827821 5.73046524 14.07827821 5.73046524 13 2 C8.71 1.67 4.42 1.34 0 1 C0 0.67 0 0.34 0 0 Z " fill="#CEE2A1" transform="translate(81,119)"/>
<path d="M0 0 C2.97 0 5.94 0 9 0 C8.67 0.99 8.34 1.98 8 3 C7.34 3 6.68 3 6 3 C6.12375 4.546875 6.12375 4.546875 6.25 6.125 C5.96129397 10.59994346 4.77686282 12.54995831 2 16 C1.67 16 1.34 16 1 16 C0.67 10.72 0.34 5.44 0 0 Z " fill="#EFA4AC" transform="translate(54,54)"/>
<path d="M0 0 C0.89589844 0.00322266 1.79179688 0.00644531 2.71484375 0.00976562 C4.12056641 0.02233398 4.12056641 0.02233398 5.5546875 0.03515625 C6.49957031 0.03966797 7.44445312 0.04417969 8.41796875 0.04882812 C10.75527137 0.06063268 13.09244811 0.07709866 15.4296875 0.09765625 C16.4296875 3.09765625 16.4296875 3.09765625 15.65234375 4.921875 C14.578125 6.64713542 13.50390625 8.37239583 12.4296875 10.09765625 C12.0996875 10.09765625 11.7696875 10.09765625 11.4296875 10.09765625 C11.2421875 7.78515625 11.2421875 7.78515625 11.4296875 5.09765625 C12.94140625 3.4296875 12.94140625 3.4296875 14.4296875 2.09765625 C2.4988057 1.13132935 2.4988057 1.13132935 -8.01171875 5.16796875 C-9.23101919 7.49009914 -10.05181556 9.53109639 -10.5703125 12.09765625 C-11.5703125 9.09765625 -11.5703125 9.09765625 -10.64453125 7.08984375 C-10.18691406 6.39117187 -9.72929688 5.6925 -9.2578125 4.97265625 C-8.80792969 4.26882812 -8.35804687 3.565 -7.89453125 2.83984375 C-5.59845092 -0.1809581 -3.59153419 -0.02273123 0 0 Z " fill="#FBF2F3" transform="translate(48.5703125,51.90234375)"/>
<path d="M0 0 C6.0546875 -0.1953125 6.0546875 -0.1953125 8 0 C8.66 0.66 9.32 1.32 10 2 C9.01 2.33 8.02 2.66 7 3 C6.34 2.67 5.68 2.34 5 2 C4.91846067 3.58246707 4.86056443 5.16616273 4.8125 6.75 C4.77769531 7.63171875 4.74289063 8.5134375 4.70703125 9.421875 C5.05435734 12.47834457 6.11096173 13.63870216 8 16 C8.1875 19.25 8.1875 19.25 8 22 C7.67 22 7.34 22 7 22 C6.6596875 20.329375 6.6596875 20.329375 6.3125 18.625 C5.35445726 14.94477965 5.35445726 14.94477965 2.75 13.3125 C-1.2199298 12.86137161 -2.9583865 14.59500328 -6 17 C-4.54744301 13.17053157 -2.57104439 11.87949705 1 10 C0.67 6.7 0.34 3.4 0 0 Z " fill="#C5F4DB" transform="translate(105,11)"/>
<path d="M0 0 C1.65 0.33 3.3 0.66 5 1 C5.02692484 3.29160319 5.04636124 5.58329546 5.0625 7.875 C5.07410156 9.15117187 5.08570312 10.42734375 5.09765625 11.7421875 C5 15 5 15 4 17 C1.03 17 -1.94 17 -5 17 C-5 16.67 -5 16.34 -5 16 C-3.35 15.67 -1.7 15.34 0 15 C0 10.05 0 5.1 0 0 Z " fill="#CCE58D" transform="translate(84,11)"/>
<path d="M0 0 C1.65 0 3.3 0 5 0 C6.77641602 5.55130005 6.53883587 10.76365102 4 16 C3.01 16 2.02 16 1 16 C0.67 10.72 0.34 5.44 0 0 Z " fill="#C2E998" transform="translate(94,98)"/>
<path d="M0 0 C0.99 0.33 1.98 0.66 3 1 C2.67 11.89 2.34 22.78 2 34 C1.34 33.67 0.68 33.34 0 33 C0 22.11 0 11.22 0 0 Z " fill="#EF9E8A" transform="translate(60,90)"/>
<path d="M0 0 C0.515625 0.515625 1.03125 1.03125 1.5625 1.5625 C4.99819483 3.588679 7.19802931 2.84488238 11 2 C11.66 1.67 12.32 1.34 13 1 C12.67 1.639375 12.34 2.27875 12 2.9375 C10.6941351 6.93671126 10.44169377 10.8209137 11 15 C11.66 15.66 12.32 16.32 13 17 C11.35 17.33 9.7 17.66 8 18 C5.77076223 13.67265609 6.07529447 10.71599818 7 6 C6.401875 5.896875 5.80375 5.79375 5.1875 5.6875 C2.68741714 4.90175967 1.62464918 4.03081147 0 2 C0 1.34 0 0.68 0 0 Z " fill="#BCF3D7" transform="translate(99,32)"/>
<path d="M0 0 C7.41641337 -0.36474164 7.41641337 -0.36474164 9.75 1.09375 C11.62026304 3.94590113 11.28745794 6.3222495 11.1875 9.6875 C11.16042969 10.86699219 11.13335937 12.04648437 11.10546875 13.26171875 C11.07066406 14.16535156 11.03585938 15.06898437 11 16 C9.35 15.67 7.7 15.34 6 15 C6 10.71 6 6.42 6 2 C3.03 1.505 3.03 1.505 0 1 C0 0.67 0 0.34 0 0 Z " fill="#ECDD62" transform="translate(64,33)"/>
<path d="M0 0 C4.97029313 5.50282454 7.35658342 12.17117383 10 19 C7.69 18.67 5.38 18.34 3 18 C2.22862616 15.49303503 2.00832969 13.59184514 2.0625 10.9375 C2.25885068 7.80666091 2.25885068 7.80666091 0 5 C-0.125 2.3125 -0.125 2.3125 0 0 Z " fill="#EB9D93" transform="translate(41,96)"/>
<path d="M0 0 C1.32 0.33 2.64 0.66 4 1 C4 4.96 4 8.92 4 13 C2.9275 13.103125 1.855 13.20625 0.75 13.3125 C-2.85820872 13.97400493 -4.36395023 14.57483421 -7 17 C-4 11 -4 11 -1 10 C-0.67 6.7 -0.34 3.4 0 0 Z " fill="#BDEFC9" transform="translate(106,98)"/>
<path d="M0 0 C1.32 0.33 2.64 0.66 4 1 C5.0006709 6.96345767 5.0662997 11.28728907 3 17 C0.69 17 -1.62 17 -4 17 C-2.68 16.34 -1.36 15.68 0 15 C0 10.05 0 5.1 0 0 Z " fill="#CDE58C" transform="translate(91,98)"/>
<path d="M0 0 C1.98 0.495 1.98 0.495 4 1 C3.67 5.95 3.34 10.9 3 16 C1.68 15.67 0.36 15.34 -1 15 C-1.02693575 12.87506859 -1.04636628 10.75004088 -1.0625 8.625 C-1.07410156 7.44164062 -1.08570313 6.25828125 -1.09765625 5.0390625 C-1 2 -1 2 0 0 Z " fill="#F4C964" transform="translate(60,33)"/>
<path d="M0 0 C0.99 0 1.98 0 3 0 C3.02692484 2.29160319 3.04636124 4.58329546 3.0625 6.875 C3.07410156 8.15117188 3.08570313 9.42734375 3.09765625 10.7421875 C3 14 3 14 2 16 C1.01 16 0.02 16 -1 16 C-1.02685095 13.52076199 -1.04676547 11.0418116 -1.0625 8.5625 C-1.07506836 7.50192383 -1.07506836 7.50192383 -1.08789062 6.41992188 C-1.09653588 4.61306441 -1.05220011 2.80612397 -1 1 C-0.67 0.67 -0.34 0.34 0 0 Z " fill="#F2A882" transform="translate(50,33)"/>
<path d="M0 0 C1.32 0.33 2.64 0.66 4 1 C3.67 4.96 3.34 8.92 3 13 C1.35 13.33 -0.3 13.66 -2 14 C-1.649375 12.783125 -1.29875 11.56625 -0.9375 10.3125 C-0.05285244 6.84763041 -0.04773586 4.49163519 -1 1 C-0.67 0.67 -0.34 0.34 0 0 Z " fill="#ECDD61" transform="translate(71,13)"/>
<path d="M0 0 C1.32 0.33 2.64 0.66 4 1 C5.39151652 5.79300133 4.68662689 10.15135782 4 15 C2.68 14.67 1.36 14.34 0 14 C0 9.38 0 4.76 0 0 Z " fill="#CCE68B" transform="translate(91,120)"/>
<path d="M0 0 C0.66 0 1.32 0 2 0 C2 0.66 2 1.32 2 2 C2.66 2 3.32 2 4 2 C4.08078641 4.12438339 4.13909141 6.2496323 4.1875 8.375 C4.22230469 9.55835938 4.25710937 10.74171875 4.29296875 11.9609375 C4.19628906 12.96382812 4.09960938 13.96671875 4 15 C3.01 15.66 2.02 16.32 1 17 C0.01 16.67 -0.98 16.34 -2 16 C-1.34 15.67 -0.68 15.34 0 15 C0 10.05 0 5.1 0 0 Z " fill="#ECDC62" transform="translate(79,119)"/>
<path d="M0 0 C0.33 0 0.66 0 1 0 C1 7.59 1 15.18 1 23 C0.34 23.33 -0.32 23.66 -1 24 C-1 23.01 -1 22.02 -1 21 C-1.66 20.67 -2.32 20.34 -3 20 C-2.34 20 -1.68 20 -1 20 C-1.09539063 18.80761719 -1.19078125 17.61523438 -1.2890625 16.38671875 C-1.40161568 14.82035364 -1.51356334 13.25394494 -1.625 11.6875 C-1.68945312 10.90181641 -1.75390625 10.11613281 -1.8203125 9.30664062 C-1.871875 8.54931641 -1.9234375 7.79199219 -1.9765625 7.01171875 C-2.02893066 6.31522217 -2.08129883 5.61872559 -2.13525391 4.90112305 C-2 3 -2 3 0 0 Z " fill="#E950CF" transform="translate(40,62)"/>
<path d="M0 0 C0.66 0.33 1.32 0.66 2 1 C2 6.28 2 11.56 2 17 C1.01 17 0.02 17 -1 17 C-1.02684679 14.35409986 -1.04676357 11.70846904 -1.0625 9.0625 C-1.07087891 8.30775391 -1.07925781 7.55300781 -1.08789062 6.77539062 C-1.09652441 4.85005687 -1.05224333 2.92464419 -1 1 C-0.67 0.67 -0.34 0.34 0 0 Z " fill="#EE87A2" transform="translate(39,35)"/>
<path d="M0 0 C1.66611905 -0.042721 3.33382885 -0.04063832 5 0 C6 1 6 1 6.09765625 4.16015625 C6.08605469 5.44792969 6.07445313 6.73570313 6.0625 8.0625 C6.05347656 9.35285156 6.04445313 10.64320312 6.03515625 11.97265625 C6.02355469 12.97167969 6.01195313 13.97070312 6 15 C4.68 15.33 3.36 15.66 2 16 C2.33 11.05 2.66 6.1 3 1 C2.01 0.67 1.02 0.34 0 0 Z " fill="#DDE174" transform="translate(74,11)"/>
<path d="M0 0 C0.99 0.33 1.98 0.66 3 1 C3 5.62 3 10.24 3 15 C0.525 14.01 0.525 14.01 -2 13 C-1.34 12.67 -0.68 12.34 0 12 C0 8.04 0 4.08 0 0 Z " fill="#EBDD63" transform="translate(80,98)"/>
<path d="M0 0 C2.475 0.495 2.475 0.495 5 1 C5 5.95 5 10.9 5 16 C4.01 15.67 3.02 15.34 2 15 C2 10.38 2 5.76 2 1 C1.34 0.67 0.68 0.34 0 0 Z " fill="#E5E06C" transform="translate(72,33)"/>
<path d="M0 0 C0.99 0.33 1.98 0.66 3 1 C3.54466387 5.084979 4 8.8725485 4 13 C2.68 13 1.36 13 0 13 C0 8.71 0 4.42 0 0 Z " fill="#AEEEB3" transform="translate(99,36)"/>
<path d="M0 0 C3 1 3 1 4.1875 3.0625 C4.455625 3.701875 4.72375 4.34125 5 5 C4.34 5 3.68 5 3 5 C3.185625 5.680625 3.37125 6.36125 3.5625 7.0625 C4.08523943 10.57232191 3.61378577 13.52188063 3 17 C2.01 16.67 1.02 16.34 0 16 C0 10.72 0 5.44 0 0 Z " fill="#C1E89F" transform="translate(96,119)"/>
<path d="M0 0 C1.32 0.66 2.64 1.32 4 2 C3.34 2 2.68 2 2 2 C2 5.96 2 9.92 2 14 C1.01 13.34 0.02 12.68 -1 12 C-1.328125 9.43359375 -1.328125 9.43359375 -1.25 6.4375 C-1.23453125 5.44621094 -1.2190625 4.45492187 -1.203125 3.43359375 C-1 1 -1 1 0 0 Z " fill="#9FEFC8" transform="translate(110,98)"/>
<path d="M0 0 C0.12375 0.639375 0.2475 1.27875 0.375 1.9375 C0.58125 2.618125 0.7875 3.29875 1 4 C1.66 4.33 2.32 4.66 3 5 C3 5.99 3 6.98 3 8 C3.66 8 4.32 8 5 8 C5.38091797 8.90492187 5.38091797 8.90492187 5.76953125 9.828125 C8.29568376 15.75675636 8.29568376 15.75675636 12 21 C6.5456022 18.85720086 4.15870605 14.59729695 1.75 9.5 C0.34356904 6.20917132 -0.46834933 3.62970734 0 0 Z " fill="#EEBDE5" transform="translate(15,85)"/>
<path d="M0 0 C0.66 0.33 1.32 0.66 2 1 C2.44921875 3.3984375 2.44921875 3.3984375 2.6875 6.375 C2.77386719 7.35210938 2.86023438 8.32921875 2.94921875 9.3359375 C3 12 3 12 2 15 C-0.76228674 11.88152365 -1.37243224 9.95683144 -1.25 5.8125 C-1.23453125 4.93207031 -1.2190625 4.05164063 -1.203125 3.14453125 C-1 1 -1 1 0 0 Z " fill="#99F1CF" transform="translate(110,12)"/>
<path d="M0 0 C1.32 0.33 2.64 0.66 4 1 C4 3.97 4 6.94 4 10 C2.68 10 1.36 10 0 10 C0 6.7 0 3.4 0 0 Z " fill="#A6F0BD" transform="translate(102,11)"/>
<path d="M0 0 C0.66 0 1.32 0 2 0 C2 3.63 2 7.26 2 11 C2.66 11.33 3.32 11.66 4 12 C2.35 12 0.7 12 -1 12 C-1.02712066 10.56260487 -1.04645067 9.12506137 -1.0625 7.6875 C-1.07410156 6.88699219 -1.08570312 6.08648437 -1.09765625 5.26171875 C-1 3 -1 3 0 0 Z " fill="#9FF0C7" transform="translate(110,123)"/>
<path d="M0 0 C3.28863525 3.02002707 5.46196526 6.13790066 7.6875 10 C8.28949219 11.03125 8.89148438 12.0625 9.51171875 13.125 C10.74040313 15.49852153 11.53025268 17.39446819 12 20 C8.3304964 16.7106702 6.11629795 13.12557223 3.75 8.875 C3.38648438 8.24207031 3.02296875 7.60914062 2.6484375 6.95703125 C0 2.2675047 0 2.2675047 0 0 Z " fill="#FAEAF0" transform="translate(38,86)"/>
<path d="M0 0 C0.66 0.33 1.32 0.66 2 1 C0.40353857 2.98584227 -1.20149465 4.96351431 -2.8125 6.9375 C-3.26431641 7.50146484 -3.71613281 8.06542969 -4.18164062 8.64648438 C-7.66015625 12.88671875 -7.66015625 12.88671875 -11 14 C-11 12 -11 12 -9.4375 10.375 C-8.633125 9.59125 -7.82875 8.8075 -7 8 C-4.63715791 5.35887886 -2.31694922 2.68141314 0 0 Z " fill="#E07DC5" transform="translate(29,39)"/>
<path d="M0 0 C0.33 0.66 0.66 1.32 1 2 C0.34 3.65 -0.32 5.3 -1 7 C2.96 7.33 6.92 7.66 11 8 C11 8.33 11 8.66 11 9 C5.72 9 0.44 9 -5 9 C-3.35 6.03 -1.7 3.06 0 0 Z " fill="#E8CF7E" transform="translate(63,19)"/>
<path d="M0 0 C0.66 0.33 1.32 0.66 2 1 C2 1.66 2 2.32 2 3 C2.66 3.33 3.32 3.66 4 4 C3.34 4 2.68 4 2 4 C2.33 6.97 2.66 9.94 3 13 C2.34 13 1.68 13 1 13 C1 12.34 1 11.68 1 11 C0.34 10.67 -0.32 10.34 -1 10 C-0.67 6.7 -0.34 3.4 0 0 Z " fill="#EE8E99" transform="translate(41,101)"/>
<path d="M0 0 C2.97 0 5.94 0 9 0 C8.67 0.99 8.34 1.98 8 3 C7.34 3 6.68 3 6 3 C6 4.65 6 6.3 6 8 C5.34 7.67 4.68 7.34 4 7 C4 5.02 4 3.04 4 1 C2.68 0.67 1.36 0.34 0 0 Z " fill="#E99C95" transform="translate(54,54)"/>
<path d="M0 0 C0.66 0 1.32 0 2 0 C2 2.64 2 5.28 2 8 C0.68 8.33 -0.64 8.66 -2 9 C-2.33 8.34 -2.66 7.68 -3 7 C-2.06421005 4.64018187 -1.06652192 2.30368736 0 0 Z " fill="#F5CF5E" transform="translate(64,18)"/>
<path d="M0 0 C0 2.31 0 4.62 0 7 C-0.99 7.495 -0.99 7.495 -2 8 C-2 7.34 -2 6.68 -2 6 C-2.66 6 -3.32 6 -4 6 C-4 4.35 -4 2.7 -4 1 C-2 0 -2 0 0 0 Z " fill="#E442DC" transform="translate(37,70)"/>
<path d="M0 0 C2.4375 0.625 2.4375 0.625 5 2 C6.47368421 7.05263158 6.47368421 7.05263158 5 10 C4.16121545 8.71186658 3.32913217 7.41936744 2.5 6.125 C2.0359375 5.40570313 1.571875 4.68640625 1.09375 3.9453125 C0 2 0 2 0 0 Z " fill="#FBF5F4" transform="translate(68,99)"/>
<path d="M0 0 C0.66 0 1.32 0 2 0 C2 3.3 2 6.6 2 10 C1.01 10.495 1.01 10.495 0 11 C-1.125 3.375 -1.125 3.375 0 0 Z " fill="#AEEEB3" transform="translate(104,98)"/>
<path d="M0 0 C4.42857143 5.14285714 4.42857143 5.14285714 5 9 C2 8 2 8 0 5 C-0.125 2.3125 -0.125 2.3125 0 0 Z " fill="#EFC9CF" transform="translate(41,96)"/>
<path d="" fill="#FFFFFF" transform="translate(0,0)"/>
</svg>
